<svg width="728" height="160" viewBox="0 0 728 160" fill="none" xmlns="http://www.w3.org/2000/svg">
<path fill-rule="evenodd" clip-rule="evenodd" d="M358.908 17.1746C358.908 11.5553 354.301 7 348.618 7C342.935 7 338.329 11.5553 338.329 17.1746C338.329 22.7938 342.935 27.3492 348.618 27.3492C354.301 27.3492 358.908 22.7938 358.908 17.1746ZM520.452 17.1746L520.451 41.5933L543.089 41.5936V57.8729L520.451 57.8704L520.452 110.781C520.452 117.524 525.98 122.99 532.799 122.99H555.436V139.27H532.799C516.888 139.27 503.989 126.515 503.989 110.781V17.1746H520.452ZM322.895 139.27H306.946L305.875 125.757C300.503 133.364 289.138 141.304 271.447 141.304C243.034 141.304 220 118.528 220 90.4315C220 62.3352 243.034 39.5587 271.447 39.5587C299.861 39.5587 322.895 62.3352 322.895 90.4315V139.27ZM271.447 125.025C292.026 125.025 306.431 110.781 306.431 90.4315C306.431 71.326 290.768 55.838 271.447 55.838C252.126 55.838 236.463 71.326 236.463 90.4315C236.463 109.537 252.126 125.025 271.447 125.025ZM606.883 39.5587C635.004 39.5587 657.855 61.868 658.323 89.5643L658.331 90.4315V139.27H642.382L641.311 125.757C635.939 133.364 624.574 141.304 606.883 141.304C578.47 141.304 555.436 118.528 555.436 90.4315C555.436 62.3352 578.47 39.5587 606.883 39.5587ZM340.387 139.27H356.85V41.5936H340.387V139.27ZM425.789 41.5936V57.8729H403.152C396.517 57.8729 391.105 63.0478 390.817 69.5385L390.805 70.0824V139.27H374.342V70.0824C374.342 54.5943 386.841 41.9929 402.409 41.6029L403.152 41.5936H425.789ZM727.27 57.8729V41.5936H704.633L703.89 41.6029C688.322 41.9929 675.823 54.5943 675.823 70.0824V139.27H692.286V70.0824L692.298 69.5385C692.586 63.0478 697.998 57.8729 704.633 57.8729H727.27ZM491.642 57.8729V41.5936H457.555L456.819 41.6032C443.367 41.9574 432.134 51.993 430.481 65.2726C428.798 78.7954 437.594 91.4306 450.969 94.703L466.678 98.5464L467.236 98.696C473.119 100.416 476.952 106.076 476.259 112.159C475.556 118.327 470.28 122.99 464.002 122.99H425.789V139.27H464.002L464.758 139.26C479.08 138.893 491.006 128.135 492.619 113.981C494.259 99.5877 484.852 86.2226 470.633 82.7436L454.923 78.9002L454.417 78.7636C449.414 77.2833 446.177 72.4366 446.821 67.2612C447.488 61.9003 452.093 57.8729 457.555 57.8729H491.642ZM606.883 55.838C587.562 55.838 571.899 71.326 571.899 90.4315C571.899 109.537 587.562 125.025 606.883 125.025C627.462 125.025 641.868 110.781 641.868 90.4315C641.868 71.326 626.205 55.838 606.883 55.838Z" fill="black"/>
<path fill-rule="evenodd" clip-rule="evenodd" d="M79.6653 39.8326C79.6653 61.8316 61.8316 79.6653 39.8326 79.6653C17.8337 79.6653 0 61.8316 0 39.8326V0H39.8326C61.8316 0 79.6653 17.8337 79.6653 39.8326ZM79.6653 120.167C79.6653 142.166 61.8316 160 39.8326 160H0V120.167C0 98.1684 17.8337 80.3347 39.8326 80.3347C61.8316 80.3347 79.6653 98.1684 79.6653 120.167ZM120.167 79.6653C142.166 79.6653 160 61.8316 160 39.8326V0H120.167C98.1684 0 80.3347 17.8337 80.3347 39.8326C80.3347 61.8316 98.1684 79.6653 120.167 79.6653ZM160 160H120.167C98.1684 160 80.3347 142.166 80.3347 120.167C80.3347 98.1684 98.1684 80.3347 120.167 80.3347C142.166 80.3347 160 98.1684 160 120.167V160Z" fill="#0095FF"/>
</svg>
