<svg width="64" height="64" viewBox="0 0 64 64" fill="none" xmlns="http://www.w3.org/2000/svg">
<g clip-path="url(#clip0_827_27234)">
<path d="M58.0582 0H6C2.68629 0 0 2.68629 0 6V58C0 61.3137 2.68629 64 6 64H58.0582C61.3719 64 64.0582 61.3137 64.0582 58V6C64.0582 2.68629 61.3719 0 58.0582 0Z" fill="#EFEFEF"/>
<path d="M44.9457 24.134C44.9348 24.1237 34.2146 15.8884 33.8923 15.6393C33.8736 15.6254 33.8555 15.6115 33.8555 15.6115C32.1378 14.2965 29.5864 14.2687 27.778 15.5359C26.6468 16.3273 25.9672 17.5245 25.9164 18.8195C25.9152 18.8709 25.9122 18.9229 25.9122 18.9755C25.9122 19.6472 26.0906 20.296 26.4128 20.8788C23.0936 20.8818 19.7549 20.8854 19.7549 20.8854C17.2652 20.8873 15.0137 22.5668 14.4997 24.7924C14.4266 25.1116 14.3897 25.4333 14.3897 25.7525C14.3897 26.6836 14.6993 27.5862 15.2851 28.3275C15.9447 29.1564 16.8964 29.7144 17.9822 29.9321C14.8462 32.3402 11.7125 34.7447 11.7095 34.7477C11.6871 34.7641 11.669 34.7792 11.6533 34.7895C10.3957 35.7556 9.56741 37.1547 9.37998 38.6275C9.35217 38.8433 9.33887 39.0573 9.33887 39.2696C9.33887 40.33 9.67744 41.3385 10.3195 42.1626C11.1013 43.1626 12.2549 43.7974 13.5687 43.9468C15.0741 44.1209 16.6582 43.6384 17.9115 42.6251C17.9194 42.6191 19.4714 41.3464 21.108 40.0078C21.7084 41.457 22.5506 42.8004 23.6389 44.0018C25.0392 45.549 26.7411 46.7715 28.6946 47.636C30.7478 48.546 32.948 49.0055 35.2346 49C37.523 48.9958 39.7219 48.5308 41.7721 47.6155C43.7298 46.7394 45.4281 45.5127 46.823 43.9679C52.1514 38.0264 51.1729 28.9579 44.9457 24.134Z" fill="#FEFEFE"/>
<path d="M30.7383 33.3296C30.8024 32.1863 31.3623 31.179 32.2069 30.465C33.0352 29.7636 34.1501 29.335 35.3665 29.335C36.5818 29.335 37.6967 29.7636 38.5256 30.465C39.3696 31.179 39.9295 32.1863 39.9942 33.3284C40.0583 34.5031 39.5861 35.5944 38.7578 36.4034C37.9131 37.2262 36.7118 37.7425 35.3665 37.7425C34.0213 37.7425 32.8175 37.2262 31.9735 36.4034C31.1446 35.5944 30.6736 34.5031 30.7383 33.3296Z" fill="#0E548B"/>
<path d="M23.3448 35.6403C23.3527 36.0877 23.4954 36.9571 23.7094 37.6361C24.1592 39.0732 24.9223 40.4028 25.9839 41.5745C27.0734 42.7788 28.415 43.7462 29.9646 44.433C31.5934 45.1543 33.3583 45.5219 35.1914 45.5189C37.0215 45.5165 38.7864 45.1416 40.4152 44.4149C41.9648 43.7214 43.3052 42.7498 44.3928 41.5449C45.4539 40.3683 46.2157 39.0364 46.6667 37.5992C46.8935 36.8731 47.0368 36.1361 47.0942 35.3967C47.1504 34.6681 47.1269 33.9384 47.0235 33.2092C46.8215 31.7884 46.33 30.4553 45.573 29.24C44.8808 28.1233 43.9884 27.1457 42.9273 26.3228L42.9297 26.321L32.2216 18.099C32.2119 18.0918 32.2041 18.0839 32.1938 18.0773C31.4913 17.5379 30.3099 17.5398 29.5372 18.0803C28.756 18.6268 28.6665 19.5307 29.3618 20.1009L29.3588 20.1039L33.825 23.7357L20.2124 23.7502C20.2058 23.7502 20.1991 23.7502 20.1943 23.7502C19.0691 23.7514 17.9875 24.4897 17.7734 25.4226C17.5534 26.373 18.3176 27.1614 19.4875 27.1656L19.4857 27.1699L26.3854 27.1566L14.0733 36.6071C14.0576 36.6186 14.0406 36.6307 14.0261 36.6421C12.8647 37.5315 12.4892 39.0104 13.2208 39.9463C13.9632 40.8979 15.5419 40.8997 16.7154 39.9517L23.4349 34.4523C23.4349 34.4523 23.337 35.1947 23.3448 35.6403ZM40.6117 38.1264C39.2271 39.537 37.2888 40.3369 35.1914 40.3411C33.091 40.3447 31.1527 39.5521 29.7681 38.144C29.0916 37.4578 28.5946 36.6681 28.2881 35.8271C27.9876 35.0007 27.8709 34.1234 27.9483 33.2382C28.0214 32.3731 28.279 31.5478 28.6901 30.8011C29.094 30.0671 29.6502 29.4039 30.3371 28.8428C31.6829 27.746 33.3963 27.1523 35.1884 27.1499C36.9822 27.1475 38.6945 27.7358 40.0415 28.8289C40.7271 29.3875 41.2828 30.0484 41.6866 30.7811C42.0996 31.5272 42.3553 32.3495 42.4315 33.2171C42.5077 34.101 42.391 34.9771 42.0905 35.8042C41.7834 36.6476 41.2882 37.4372 40.6117 38.1264Z" fill="#F4792B"/>
</g>
<defs>
<clipPath id="clip0_827_27234">
<rect width="64" height="64" fill="white"/>
</clipPath>
</defs>
</svg>
