<svg width="442" height="499" viewBox="0 0 442 499" fill="none" xmlns="http://www.w3.org/2000/svg">
<g opacity="0.6">
<path d="M14.95 352.286L224.581 481.558V268.433L119.766 207.291L14.95 146.148V352.286Z" fill="white" fill-opacity="0.1"/>
<path fill-rule="evenodd" clip-rule="evenodd" d="M224.453 30.0049L41.8448 145.657L119.554 190.987L299.886 79.4264L224.453 30.0049ZM325.688 96.3312L146.899 206.938L224.461 252.183L400.982 145.661L325.688 96.3312ZM413.25 170.904L238.557 276.322V456.066L413.25 344.624V170.904ZM210.606 456.521V276.46L28.9255 170.479V344.484L210.606 456.521ZM214.819 3.02173C220.842 -0.792969 228.539 -0.733594 234.503 3.17362L433.969 133.858C438.482 136.815 441.201 141.847 441.201 147.242V349.983C441.201 356.19 438.033 361.967 432.801 365.305L224.707 498.055L9.60943 365.411C4.24261 362.101 0.974609 356.247 0.974609 349.941V147.262C0.974609 141.779 3.78191 136.678 8.41378 133.745L214.819 3.02173Z" fill="white" fill-opacity="0.6"/>
</g>
</svg>
