<svg width="64" height="64" viewBox="0 0 64 64" fill="none" xmlns="http://www.w3.org/2000/svg">
<g clip-path="url(#clip0_827_27372)">
<path d="M4.3452e-05 6.00007C1.94542e-05 2.68635 2.68632 3.28912e-05 6.00004 3.11136e-05L58.0005 3.21858e-06C61.3142 1.441e-06 64.0005 2.68624 64.0005 5.99992L64.0013 58C64.0013 61.3137 61.315 64 58.0013 64H6.00042C2.68673 64 0.000444032 61.3138 0.000420034 58.0001L4.3452e-05 6.00007Z" fill="#B31717"/>
<path d="M25.682 13.9734C22.6912 13.9734 20.2666 16.4018 20.2666 19.3974C20.2666 22.393 22.6912 24.8214 25.682 24.8214H31.0975V13.9734H25.682Z" fill="white"/>
<path d="M20.2666 32.0534C20.2666 29.0578 22.6912 26.6294 25.682 26.6294H31.0975V37.4774H25.682C22.6912 37.4774 20.2666 35.049 20.2666 32.0534Z" fill="white"/>
<path d="M43.7323 32.0534C43.7323 35.049 41.3077 37.4774 38.3168 37.4774C35.326 37.4774 32.9014 35.049 32.9014 32.0534C32.9014 29.0578 35.326 26.6294 38.3168 26.6294C41.3077 26.6294 43.7323 29.0578 43.7323 32.0534Z" fill="white"/>
<path d="M43.7332 19.3974C43.7332 16.4018 41.3086 13.9734 38.3177 13.9734H32.9023V24.8214H38.3177C41.3086 24.8214 43.7332 22.393 43.7332 19.3974Z" fill="white"/>
<path d="M25.682 39.2854C22.6912 39.2854 20.2666 41.7138 20.2666 44.7094C20.2666 47.705 22.6912 50.1334 25.682 50.1334C28.6729 50.1334 31.0975 47.705 31.0975 44.7094V39.2854H25.682Z" fill="white"/>
</g>
<defs>
<clipPath id="clip0_827_27372">
<rect width="64" height="64" fill="white"/>
</clipPath>
</defs>
</svg>
