<svg width="64" height="64" viewBox="0 0 64 64" fill="none" xmlns="http://www.w3.org/2000/svg">
<g clip-path="url(#clip0_827_27190)">
<path d="M58.0582 0H6C2.68629 0 0 2.68629 0 6V58C0 61.3137 2.68629 64 6 64H58.0582C61.3719 64 64.0582 61.3137 64.0582 58V6C64.0582 2.68629 61.3719 0 58.0582 0Z" fill="#272727"/>
<path fill-rule="evenodd" clip-rule="evenodd" d="M42.6963 34.5929C42.386 36.0894 41.006 39.9286 36.6046 42.008L34.8371 40.0203L31.8543 43.0169C29.9437 43.0117 25.9623 42.3363 23.15 38.552C23.15 38.552 23.7089 38.7286 24.1246 38.7363C24.6123 38.7449 25.142 38.5666 25.142 37.7463V29.6557C25.1951 28.9837 24.548 28.0751 23.4663 28.322C22.0854 28.6374 20.9823 32.0823 20.9823 32.0823C20.9789 27.9209 23.1174 25.0871 24.7751 23.6866C26.8349 21.9449 28.8431 21.3466 30.3689 21.1057C28.862 21.9654 28.0143 23.366 28.0143 24.5411C28.0143 26.4286 29.1534 26.2049 29.4911 25.9263V36.8454C29.4911 36.8454 29.5589 37.0211 29.7149 37.2294C29.942 37.5303 30.3586 37.8997 31.0331 37.8997C32.174 37.8997 33.6543 36.5977 33.6543 36.5977V27.7571C33.6543 26.8571 32.9754 25.7729 32.2974 25.3991C32.2974 25.3991 33.5531 25.1729 34.5251 25.9194C34.707 25.6968 34.9004 25.484 35.1046 25.2817C37.3631 23.0617 39.4957 22.4326 41.2709 22.1129H41.2734C41.2734 22.1129 38.0429 24.6491 38.0429 28.0511L38.108 36.7537C39.3054 37.9126 41.0857 36.2411 42.6954 34.5937L42.6963 34.5929ZM32 49.1429C41.468 49.1429 49.1429 41.468 49.1429 32C49.1429 22.532 41.468 14.8571 32 14.8571C22.532 14.8571 14.8571 22.532 14.8571 32C14.8571 41.468 22.532 49.1429 32 49.1429ZM32 50C41.9411 50 50 41.9411 50 32C50 22.0589 41.9411 14 32 14C22.0589 14 14 22.0589 14 32C14 41.9411 22.0589 50 32 50Z" fill="white"/>
</g>
<defs>
<clipPath id="clip0_827_27190">
<rect width="64" height="64" fill="white"/>
</clipPath>
</defs>
</svg>
