<svg width="64" height="64" viewBox="0 0 64 64" fill="none" xmlns="http://www.w3.org/2000/svg">
<g clip-path="url(#clip0_10768_27119)">
<path d="M4.3452e-05 6.00007C1.94542e-05 2.68635 2.68632 3.28912e-05 6.00004 3.11136e-05L58.0005 3.21858e-06C61.3142 1.441e-06 64.0005 2.68624 64.0005 5.99992L64.0013 58C64.0013 61.3137 61.315 64 58.0013 64H6.00042C2.68673 64 0.000444032 61.3138 0.000420034 58.0001L4.3452e-05 6.00007Z" fill="#F05454"/>
<path d="M50.8698 13.196L26.7092 37.3565L10.2692 29.5453L50.8698 13.196Z" fill="white"/>
<path d="M51.2113 13.5377L27.0507 37.6983L34.8619 54.1383L51.2113 13.5377Z" fill="white" fill-opacity="0.6"/>
</g>
<defs>
<clipPath id="clip0_10768_27119">
<rect width="64" height="64" fill="white"/>
</clipPath>
</defs>
</svg>
